<?xml version="1.0" encoding="UTF-8" standalone="no"?>
<!-- Created with Inkscape (http://www.inkscape.org/) -->
<svg xmlns:dc="http://purl.org/dc/elements/1.1/" xmlns:cc="http://creativecommons.org/ns#" xmlns:rdf="http://www.w3.org/1999/02/22-rdf-syntax-ns#" xmlns:svg="http://www.w3.org/2000/svg" xmlns="http://www.w3.org/2000/svg" xmlns:sodipodi="http://sodipodi.sourceforge.net/DTD/sodipodi-0.dtd" xmlns:inkscape="http://www.inkscape.org/namespaces/inkscape" version="1.1" id="svg2" xml:space="preserve" width="371.90256" height="265.69675" viewBox="0 0 371.90256 265.69674" sodipodi:docname="mitsubishi-logo.svg" inkscape:version="0.92.2 (5c3e80d, 2017-08-06)">
  <metadata id="metadata8"></metadata>
  <defs id="defs6">
    <clipPath id="clipPath18">
      <path d="M 0.059998,1190.551 H 841.89 V 0 H 0.059998 Z" id="path16" inkscape:connector-curvature="0"></path>
    </clipPath>
    <clipPath id="clipPath28">
      <path d="m -18.804,594.703 832.627,-24.712 18.437,621.212 -832.62649,24.712" id="path26" inkscape:connector-curvature="0"></path>
    </clipPath>
    <clipPath id="clipPath34">
      <path d="M 0.059998,1190.551 H 813.543 V 595.275 H 0.059998 Z" id="path32" inkscape:connector-curvature="0"></path>
    </clipPath>
    <clipPath id="clipPath46">
      <path d="M 0.059998,1190.551 H 841.89 V 0 H 0.059998 Z" id="path44" inkscape:connector-curvature="0"></path>
    </clipPath>
    <clipPath id="clipPath80">
      <path d="M 0.059998,1190.551 H 841.89 V 0 H 0.059998 Z" id="path78" inkscape:connector-curvature="0"></path>
    </clipPath>
    <clipPath id="clipPath90">
      <path d="m 0.059998,702.991 h 99.153 v -85.039 h -99.153 z" id="path88" inkscape:connector-curvature="0"></path>
    </clipPath>
    <clipPath id="clipPath174">
      <path d="M 88.016,572.598 H 478.347 V 0 H 88.016 Z" id="path172" inkscape:connector-curvature="0"></path>
    </clipPath>
  </defs>
  <g id="g10" inkscape:groupmode="layer" inkscape:label="18my_pajero_gexp_e" transform="matrix(0,1.3333333,1.3333333,0,-850.55998,-29.450666)">
    <g id="g94" transform="translate(87.812168,752.68398)">
      <path d="M 0,0 H 5.964 V -1.344 H 1.772 L 4.771,-3.142 1.772,-4.948 H 5.964 V -6.283 H 0 v 1.73 L 2.428,-3.142 0,-1.764 V 0" style="fill:#231f20;fill-opacity:1;fill-rule:nonzero;stroke:none" id="path96" inkscape:connector-curvature="0"></path>
    </g>
    <path d="m 87.812168,753.81898 h 5.9643 v 1.3355 h -5.9643 z" style="fill:#231f20;fill-opacity:1;fill-rule:nonzero;stroke:none" id="path98" inkscape:connector-curvature="0"></path>
    <g id="g100" transform="translate(89.055168,757.34698)">
      <path d="m 0,0 v -1.613 h -1.243 v 4.57 H 0 V 1.344 H 4.721 V 0 H 0" style="fill:#231f20;fill-opacity:1;fill-rule:nonzero;stroke:none" id="path102" inkscape:connector-curvature="0"></path>
    </g>
    <g id="g104" transform="translate(93.700168,760.79998)">
      <path d="m 0,0 h -1.243 c 0.051,0.277 0.168,0.95 0.168,1.773 0,0.688 -0.093,1.033 -0.471,1.033 -0.437,0 -0.495,-0.295 -0.94,-1.26 -0.429,-0.941 -0.807,-1.639 -1.815,-1.639 -1.243,0 -1.672,0.757 -1.672,2.252 0,0.764 0.068,1.319 0.11,1.663 h 1.243 c -0.034,-0.336 -0.118,-0.949 -0.118,-1.63 0,-0.806 0.084,-0.966 0.412,-0.966 0.336,0 0.504,0.437 0.798,1.092 0.445,0.984 0.815,1.79 1.949,1.79 1.184,0 1.739,-0.739 1.739,-2.335 C 0.16,1.143 0.092,0.554 0,0" style="fill:#231f20;fill-opacity:1;fill-rule:nonzero;stroke:none" id="path106" inkscape:connector-curvature="0"></path>
    </g>
    <g id="g108" transform="translate(91.760168,765.70598)">
      <path d="m 0,0 h -3.948 v 1.336 h 3.897 c 0.681,0 0.916,0.403 0.916,1.041 0,0.639 -0.235,1.05 -0.916,1.05 H -3.948 V 4.763 H 0 C 1.445,4.763 2.1,3.814 2.1,2.377 2.1,0.94 1.445,0 0,0" style="fill:#231f20;fill-opacity:1;fill-rule:nonzero;stroke:none" id="path110" inkscape:connector-curvature="0"></path>
    </g>
    <g id="g112" transform="translate(92.650168,774.11498)">
      <path d="m 0,0 c 0,0.538 -0.193,0.756 -0.714,0.756 -0.462,0 -0.655,-0.202 -0.655,-0.698 V -1.168 H 0 Z m -2.428,-0.092 c 0,0.537 -0.285,0.731 -0.68,0.731 -0.479,0 -0.605,-0.236 -0.605,-0.731 v -1.076 h 1.285 z m -2.411,-2.411 v 2.604 c 0,1.218 0.445,1.89 1.537,1.89 0.866,0 1.134,-0.496 1.311,-0.949 0.16,0.537 0.454,1.1 1.453,1.1 1.042,0 1.664,-0.63 1.664,-1.949 v -2.696 h -5.965" style="fill:#231f20;fill-opacity:1;fill-rule:nonzero;stroke:none" id="path114" inkscape:connector-curvature="0"></path>
    </g>
    <path d="m 87.812168,777.06398 h 5.9643 v 1.3358 h -5.9643 z" style="fill:#231f20;fill-opacity:1;fill-rule:nonzero;stroke:none" id="path116" inkscape:connector-curvature="0"></path>
    <g id="g118" transform="translate(93.700168,779.37398)">
      <path d="m 0,0 h -1.243 c 0.051,0.277 0.168,0.949 0.168,1.772 0,0.689 -0.093,1.033 -0.471,1.033 -0.437,0 -0.495,-0.293 -0.94,-1.259 -0.429,-0.941 -0.807,-1.639 -1.815,-1.639 -1.243,0 -1.672,0.757 -1.672,2.252 0,0.764 0.068,1.319 0.11,1.663 H -4.62 C -4.654,3.486 -4.738,2.873 -4.738,2.193 c 0,-0.807 0.084,-0.967 0.412,-0.967 0.336,0 0.504,0.437 0.798,1.093 0.445,0.983 0.815,1.789 1.949,1.789 1.184,0 1.739,-0.74 1.739,-2.336 C 0.16,1.142 0.092,0.554 0,0" style="fill:#231f20;fill-opacity:1;fill-rule:nonzero;stroke:none" id="path120" inkscape:connector-curvature="0"></path>
    </g>
    <g id="g122" transform="translate(87.812168,788.98398)">
      <path d="M 0,0 H 5.964 V -1.335 H 3.595 V -3.453 H 5.964 V -4.788 H 0 v 1.335 h 2.352 v 2.118 L 0,-1.335 V 0" style="fill:#231f20;fill-opacity:1;fill-rule:nonzero;stroke:none" id="path124" inkscape:connector-curvature="0"></path>
    </g>
    <path d="m 87.812168,790.07698 h 5.9643 v 1.3357 h -5.9643 z" style="fill:#231f20;fill-opacity:1;fill-rule:nonzero;stroke:none" id="path126" inkscape:connector-curvature="0"></path>
    <g id="g128" transform="translate(95.838168,758.94698)">
      <path d="M 0,0 H 5.964 V -1.344 H 1.772 L 4.771,-3.142 1.772,-4.948 H 5.964 V -6.284 H 0 v 1.731 L 2.427,-3.142 0,-1.764 V 0" style="fill:#231f20;fill-opacity:1;fill-rule:nonzero;stroke:none" id="path130" inkscape:connector-curvature="0"></path>
    </g>
    <g id="g132" transform="translate(98.820168,763.61798)">
      <path d="m 0,0 c -1.218,0 -1.831,-0.21 -1.831,-1.185 0,-0.974 0.613,-1.184 1.831,-1.184 1.227,0 1.848,0.21 1.848,1.184 C 1.848,-0.21 1.227,0 0,0 m 0,-3.755 c -2.134,0 -3.066,0.815 -3.066,2.57 0,1.756 0.932,2.571 3.066,2.571 2.134,0 3.066,-0.815 3.066,-2.571 0,-1.755 -0.932,-2.57 -3.066,-2.57" style="fill:#231f20;fill-opacity:1;fill-rule:nonzero;stroke:none" id="path134" inkscape:connector-curvature="0"></path>
    </g>
    <g id="g136" transform="translate(97.082168,766.83598)">
      <path d="m 0,0 v -1.613 h -1.243 v 4.57 H 0 V 1.344 H 4.721 V 0 H 0" style="fill:#231f20;fill-opacity:1;fill-rule:nonzero;stroke:none" id="path138" inkscape:connector-curvature="0"></path>
    </g>
    <g id="g140" transform="translate(98.820168,773.76598)">
      <path d="m 0,0 c -1.218,0 -1.831,-0.21 -1.831,-1.185 0,-0.974 0.613,-1.184 1.831,-1.184 1.227,0 1.848,0.21 1.848,1.184 C 1.848,-0.21 1.227,0 0,0 m 0,-3.755 c -2.134,0 -3.066,0.815 -3.066,2.57 0,1.756 0.932,2.571 3.066,2.571 2.134,0 3.066,-0.815 3.066,-2.571 0,-1.755 -0.932,-2.57 -3.066,-2.57" style="fill:#231f20;fill-opacity:1;fill-rule:nonzero;stroke:none" id="path142" inkscape:connector-curvature="0"></path>
    </g>
    <g id="g144" transform="translate(98.510168,778.41198)">
      <path d="M 0,0 C 0,0.604 -0.302,0.79 -0.756,0.79 -1.218,0.79 -1.52,0.604 -1.52,0 V -1 H 0 Z m -2.671,-2.335 v 2.419 c 0,1.277 0.478,2.092 1.915,2.092 0.924,0 1.521,-0.462 1.705,-1.227 l 2.344,1.47 V 0.857 L 1.159,-0.403 V -1 h 2.134 v -1.335 h -5.964" style="fill:#231f20;fill-opacity:1;fill-rule:nonzero;stroke:none" id="path146" inkscape:connector-curvature="0"></path>
    </g>
    <g id="g148" transform="translate(101.72717,781.38598)">
      <path d="m 0,0 h -1.243 c 0.05,0.277 0.168,0.949 0.168,1.772 0,0.689 -0.093,1.034 -0.471,1.034 -0.437,0 -0.495,-0.294 -0.941,-1.26 -0.428,-0.941 -0.806,-1.639 -1.814,-1.639 -1.243,0 -1.672,0.756 -1.672,2.252 0,0.764 0.067,1.319 0.109,1.663 H -4.62 C -4.654,3.486 -4.738,2.873 -4.738,2.193 c 0,-0.807 0.084,-0.967 0.412,-0.967 0.336,0 0.504,0.437 0.798,1.092 0.445,0.983 0.815,1.789 1.949,1.789 1.184,0 1.738,-0.739 1.738,-2.335 C 0.159,1.142 0.092,0.554 0,0" style="fill:#231f20;fill-opacity:1;fill-rule:nonzero;stroke:none" id="path150" inkscape:connector-curvature="0"></path>
    </g>
    <g id="g152" transform="translate(63.518168,763.10298)">
      <path d="M 0,0 9.896,5.713 0,11.426 -9.895,5.713 0,0" style="fill:#ed1c24;fill-opacity:1;fill-rule:nonzero;stroke:none" id="path154" inkscape:connector-curvature="0"></path>
    </g>
    <g id="g156" transform="translate(73.414168,780.24198)">
      <path d="m 0,0 v -11.427 l 9.896,5.714 V 5.713 L 0,0" style="fill:#ed1c24;fill-opacity:1;fill-rule:nonzero;stroke:none" id="path158" inkscape:connector-curvature="0"></path>
    </g>
    <g id="g160" transform="translate(73.414168,757.38898)">
      <path d="M 0,0 V 11.426 L 9.896,5.713 V -5.713 L 0,0" style="fill:#ed1c24;fill-opacity:1;fill-rule:nonzero;stroke:none" id="path162" inkscape:connector-curvature="0"></path>
    </g>
    <g id="g2652" transform="translate(173.10859,716.01709)">
      <path d="M 0,0 H 13.996 V -3.154 H 4.16 l 7.037,-4.218 -7.037,-4.24 h 9.836 v -3.134 H 0 v 4.062 L 5.697,-7.372 0,-4.14 V 0" style="fill:#231f20;fill-opacity:1;fill-rule:nonzero;stroke:none" id="path2654" inkscape:connector-curvature="0"></path>
    </g>
    <path d="m 173.10859,718.67909 h 13.996 v 3.1342 h -13.996 z" style="fill:#231f20;fill-opacity:1;fill-rule:nonzero;stroke:none" id="path2656" inkscape:connector-curvature="0"></path>
    <g id="g2658" transform="translate(176.02659,726.95709)">
      <path d="M 0,0 V -3.784 H -2.917 V 6.939 H 0 V 3.154 H 11.079 V 0 H 0" style="fill:#231f20;fill-opacity:1;fill-rule:nonzero;stroke:none" id="path2660" inkscape:connector-curvature="0"></path>
    </g>
    <g id="g2662" transform="translate(186.92859,735.05909)">
      <path d="m 0,0 h -2.918 c 0.119,0.65 0.395,2.228 0.395,4.16 0,1.616 -0.217,2.423 -1.104,2.423 -1.026,0 -1.164,-0.689 -2.208,-2.956 -1.005,-2.208 -1.893,-3.844 -4.258,-3.844 -2.918,0 -3.923,1.775 -3.923,5.283 0,1.794 0.158,3.096 0.256,3.903 h 2.917 c -0.078,-0.788 -0.276,-2.227 -0.276,-3.824 0,-1.893 0.198,-2.267 0.967,-2.267 0.788,0 1.182,1.025 1.872,2.563 1.045,2.307 1.913,4.2 4.574,4.2 2.779,0 4.08,-1.736 4.08,-5.481 C 0.374,2.681 0.216,1.301 0,0" style="fill:#231f20;fill-opacity:1;fill-rule:nonzero;stroke:none" id="path2664" inkscape:connector-curvature="0"></path>
    </g>
    <g id="g2666" transform="translate(182.37359,746.57109)">
      <path d="m 0,0 h -9.265 v 3.135 h 9.147 c 1.596,0 2.149,0.945 2.149,2.444 0,1.498 -0.553,2.463 -2.149,2.463 h -9.147 v 3.136 H 0 C 3.391,11.178 4.929,8.95 4.929,5.579 4.929,2.207 3.391,0 0,0" style="fill:#231f20;fill-opacity:1;fill-rule:nonzero;stroke:none" id="path2668" inkscape:connector-curvature="0"></path>
    </g>
    <g id="g2670" transform="translate(184.46359,766.30309)">
      <path d="m 0,0 c 0,1.262 -0.454,1.774 -1.675,1.774 -1.085,0 -1.539,-0.473 -1.539,-1.636 V -2.74 H 0 Z m -5.697,-0.217 c 0,1.261 -0.67,1.715 -1.597,1.715 -1.123,0 -1.42,-0.552 -1.42,-1.715 V -2.74 h 3.017 z m -5.658,-5.657 v 6.111 c 0,2.858 1.045,4.436 3.608,4.436 2.03,0 2.661,-1.164 3.075,-2.228 0.374,1.261 1.065,2.583 3.41,2.583 2.445,0 3.903,-1.48 3.903,-4.575 v -6.327 h -13.996" style="fill:#231f20;fill-opacity:1;fill-rule:nonzero;stroke:none" id="path2672" inkscape:connector-curvature="0"></path>
    </g>
    <path d="m 173.10859,773.22309 h 13.996 v 3.1339 h -13.996 z" style="fill:#231f20;fill-opacity:1;fill-rule:nonzero;stroke:none" id="path2674" inkscape:connector-curvature="0"></path>
    <g id="g2676" transform="translate(186.92859,778.64309)">
      <path d="m 0,0 h -2.918 c 0.119,0.652 0.395,2.228 0.395,4.16 0,1.617 -0.217,2.425 -1.104,2.425 -1.026,0 -1.164,-0.69 -2.208,-2.958 -1.005,-2.208 -1.893,-3.842 -4.258,-3.842 -2.918,0 -3.923,1.773 -3.923,5.282 0,1.794 0.158,3.095 0.256,3.903 h 2.917 c -0.078,-0.789 -0.276,-2.227 -0.276,-3.824 0,-1.893 0.198,-2.268 0.967,-2.268 0.788,0 1.182,1.026 1.872,2.564 1.045,2.306 1.913,4.199 4.574,4.199 2.779,0 4.08,-1.735 4.08,-5.481 C 0.374,2.682 0.216,1.302 0,0" style="fill:#231f20;fill-opacity:1;fill-rule:nonzero;stroke:none" id="path2678" inkscape:connector-curvature="0"></path>
    </g>
    <g id="g2680" transform="translate(173.10859,801.19509)">
      <path d="M 0,0 H 13.996 V -3.135 H 8.437 v -4.968 h 5.559 v -3.134 H 0 v 3.134 h 5.52 v 4.968 H 0 V 0" style="fill:#231f20;fill-opacity:1;fill-rule:nonzero;stroke:none" id="path2682" inkscape:connector-curvature="0"></path>
    </g>
    <path d="m 173.10859,803.75709 h 13.996 v 3.1339 h -13.996 z" style="fill:#231f20;fill-opacity:1;fill-rule:nonzero;stroke:none" id="path2684" inkscape:connector-curvature="0"></path>
    <g id="g2686" transform="translate(173.10859,828.69409)">
      <path d="M 0,0 H 13.996 V -3.154 H 4.16 l 7.037,-4.218 -7.037,-4.239 h 9.836 v -3.134 H 0 v 4.061 L 5.697,-7.372 0,-4.14 V 0" style="fill:#231f20;fill-opacity:1;fill-rule:nonzero;stroke:none" id="path2688" inkscape:connector-curvature="0"></path>
    </g>
    <g id="g2690" transform="translate(180.10759,839.65409)">
      <path d="m 0,0 c -2.859,0 -4.298,-0.493 -4.298,-2.779 0,-2.287 1.439,-2.781 4.298,-2.781 2.878,0 4.336,0.494 4.336,2.781 C 4.336,-0.493 2.878,0 0,0 m 0,-8.812 c -5.007,0 -7.195,1.912 -7.195,6.033 0,4.12 2.188,6.031 7.195,6.031 5.007,0 7.195,-1.911 7.195,-6.031 C 7.195,-6.9 5.007,-8.812 0,-8.812" style="fill:#231f20;fill-opacity:1;fill-rule:nonzero;stroke:none" id="path2692" inkscape:connector-curvature="0"></path>
    </g>
    <g id="g2694" transform="translate(176.02659,847.20409)">
      <path d="M 0,0 V -3.785 H -2.917 V 6.939 H 0 V 3.154 H 11.079 V 0 H 0" style="fill:#231f20;fill-opacity:1;fill-rule:nonzero;stroke:none" id="path2696" inkscape:connector-curvature="0"></path>
    </g>
    <g id="g2698" transform="translate(180.10759,863.46809)">
      <path d="m 0,0 c -2.859,0 -4.298,-0.494 -4.298,-2.78 0,-2.287 1.439,-2.78 4.298,-2.78 2.878,0 4.336,0.493 4.336,2.78 C 4.336,-0.494 2.878,0 0,0 m 0,-8.812 c -5.007,0 -7.195,1.912 -7.195,6.032 0,4.12 2.188,6.031 7.195,6.031 5.007,0 7.195,-1.911 7.195,-6.031 C 7.195,-6.9 5.007,-8.812 0,-8.812" style="fill:#231f20;fill-opacity:1;fill-rule:nonzero;stroke:none" id="path2700" inkscape:connector-curvature="0"></path>
    </g>
    <g id="g2702" transform="translate(179.37859,874.36909)">
      <path d="M 0,0 C 0,1.419 -0.71,1.852 -1.775,1.852 -2.859,1.852 -3.569,1.419 -3.569,0 V -2.345 H 0 Z m -6.269,-5.481 v 5.677 c 0,2.997 1.124,4.909 4.494,4.909 2.169,0 3.568,-1.083 4.002,-2.879 l 5.5,3.451 V 2.01 L 2.72,-0.946 V -2.345 H 7.727 V -5.481 H -6.269" style="fill:#231f20;fill-opacity:1;fill-rule:nonzero;stroke:none" id="path2704" inkscape:connector-curvature="0"></path>
    </g>
    <g id="g2706" transform="translate(186.92859,881.34709)">
      <path d="m 0,0 h -2.918 c 0.119,0.65 0.395,2.228 0.395,4.16 0,1.617 -0.217,2.423 -1.104,2.423 -1.026,0 -1.164,-0.689 -2.208,-2.956 -1.005,-2.208 -1.893,-3.844 -4.258,-3.844 -2.918,0 -3.923,1.775 -3.923,5.283 0,1.795 0.158,3.095 0.256,3.903 h 2.917 c -0.078,-0.788 -0.276,-2.227 -0.276,-3.823 0,-1.893 0.198,-2.268 0.967,-2.268 0.788,0 1.182,1.025 1.872,2.562 1.045,2.308 1.913,4.201 4.574,4.201 2.779,0 4.08,-1.736 4.08,-5.481 C 0.374,2.681 0.216,1.301 0,0" style="fill:#231f20;fill-opacity:1;fill-rule:nonzero;stroke:none" id="path2708" inkscape:connector-curvature="0"></path>
    </g>
    <g id="g2710" transform="translate(172.95459,679.51409)">
      <path d="M 0,0 6.943,4.007 0,8.016 -6.942,4.007 0,0" style="fill:#ed1c24;fill-opacity:1;fill-rule:nonzero;stroke:none" id="path2712" inkscape:connector-curvature="0"></path>
    </g>
    <g id="g2714" transform="translate(179.89759,691.53909)">
      <path d="m 0,0 v -8.017 l 6.943,4.008 V 4.009 L 0,0" style="fill:#ed1c24;fill-opacity:1;fill-rule:nonzero;stroke:none" id="path2716" inkscape:connector-curvature="0"></path>
    </g>
    <g id="g2718" transform="translate(179.89759,675.50509)">
      <path d="M 0,0 V 8.016 L 6.943,4.007 V -4.009 L 0,0" style="fill:#ed1c24;fill-opacity:1;fill-rule:nonzero;stroke:none" id="path2720" inkscape:connector-curvature="0"></path>
    </g>
  </g>
</svg>
